<svg xmlns="http://www.w3.org/2000/svg" viewBox="0 0 700 467"><path fill="currentColor" fill-rule="evenodd" d="M13.18,464.40C7.63,461.64 4.04,457.73 1.53,451.73C0.18,448.49 0.00,430.06 0.01,293.78L0.02,139.50L2.38,134.50C5.19,128.54 7.95,125.83 14.00,123.08C18.43,121.08 20.01,121.04 117.50,121.02L216.50,121.00L216.22,71.35C215.91,15.60 216.03,14.36 222.52,7.68C230.13,-0.15 218.55,0.50 350.08,0.50L467.66,0.50L472.55,3.53C475.59,5.40 478.60,8.41 480.47,11.45L483.50,16.34L483.50,68.67L483.50,121.00L582.50,121.01L681.50,121.02L686.54,123.37C692.38,126.08 696.13,130.14 698.43,136.21C699.90,140.11 700.02,154.57 699.77,295.58L699.50,450.66L696.47,455.55C694.60,458.59 691.59,461.60 688.55,463.47L683.66,466.50L351.03,466.75L18.41,467.01L13.18,464.40ZM417.79,104.25C417.33,86.31 416.63,83.26 411.63,77.33C410.16,75.58 406.83,73.11 404.23,71.83L399.50,69.50L350.00,69.50L300.50,69.50L295.77,71.83C293.17,73.11 289.84,75.58 288.37,77.33C283.37,83.26 282.67,86.31 282.21,104.25L281.77,121.00L350.00,121.00L418.23,121.00L417.79,104.25Z"/></svg>