<svg xmlns="http://www.w3.org/2000/svg" viewBox="0 0 700 673"><path fill="currentColor" fill-rule="evenodd" d="M165.90,671.56C125.49,663.11 98.29,623.35 106.47,584.71C107.26,580.98 115.57,554.34 124.94,525.51C134.30,496.69 142.48,469.82 143.11,465.80C146.39,444.80 139.06,420.95 124.48,405.20C119.87,400.23 105.58,389.23 71.23,364.25C23.91,329.84 18.36,325.20 11.21,314.08C-12.43,277.33 3.54,224.13 43.52,206.45C56.94,200.52 55.10,200.66 125.00,199.98C196.98,199.27 194.00,199.56 209.58,191.92C223.83,184.93 235.93,173.02 243.01,158.97C244.55,155.93 253.56,129.60 263.02,100.47C272.49,71.34 281.86,44.20 283.84,40.17C290.83,25.98 302.65,14.46 317.50,7.39C328.72,2.04 335.84,0.54 350.00,0.54C364.65,0.54 371.60,2.08 383.50,7.96C398.31,15.28 409.22,26.10 416.29,40.50C418.19,44.35 427.47,71.31 436.93,100.41C446.39,129.50 455.40,155.83 456.96,158.91C464.08,173.02 476.14,184.92 490.42,191.92C506.00,199.55 503.03,199.27 575.00,200.00C632.06,200.57 640.18,200.85 645.35,202.38C673.74,210.79 692.74,232.02 698.57,261.84C703.13,285.16 695.87,309.09 679.12,325.93C675.07,330.01 654.96,345.30 627.34,365.30C593.54,389.78 580.54,399.77 575.70,405.01C560.81,421.09 553.30,445.68 556.93,466.50C557.59,470.28 565.95,497.51 575.51,527.00C585.07,556.50 593.37,583.53 593.94,587.06C598.45,614.85 586.56,642.25 562.69,659.06C540.22,674.90 511.14,677.18 487.00,664.99C483.98,663.47 460.57,647.05 435.00,628.50C409.43,609.96 386.71,593.87 384.52,592.76C362.98,581.76 336.01,581.90 315.00,593.12C311.98,594.74 289.04,610.94 264.04,629.12C239.04,647.30 216.09,663.44 213.04,664.98C199.13,671.99 180.43,674.60 165.90,671.56Z"/></svg>